<svg class="marks" width="421" height="298" xmlns="http://www.w3.org/2000/svg"><defs><linearGradient id="grad_0" x1="0" x2="1" y1="0" y2="0"><stop offset="0" stop-color="#132b43"></stop><stop offset="1" stop-color="#56b1f7"></stop></linearGradient><linearGradient id="grad_0" x1="0" x2="1" y1="0" y2="0"><stop offset="0" stop-color="#132b43"></stop><stop offset="1" stop-color="#56b1f7"></stop></linearGradient></defs><g transform="translate(46,6)"><g id="g49" class="type-group"><g transform="translate(0,0)"><rect class="background" width="245" height="244" style="pointer-events: none; fill: none;"></rect><g id="g50" class="type-group"><g transform="translate(0,244)"><rect class="background" width="0" height="0" style="pointer-events: none; fill: none;"></rect><g id="g51" class="type-rule" style="pointer-events: none;"><line x1="9.031366294524203" y1="-244" x2="9.031366294524203" y2="0" style="fill: none; stroke: #d8d8d8; stroke-width: 1px; opacity: 1;"></line><line x1="35.08133971291869" y1="-244" x2="35.08133971291869" y2="0" style="fill: none; stroke: #d8d8d8; stroke-width: 1px; opacity: 1;"></line><line x1="61.131313131313185" y1="-244" x2="61.131313131313185" y2="0" style="fill: none; stroke: #d8d8d8; stroke-width: 1px; opacity: 1;"></line><line x1="87.18128654970756" y1="-244" x2="87.18128654970756" y2="0" style="fill: none; stroke: #d8d8d8; stroke-width: 1px; opacity: 1;"></line><line x1="113.23125996810205" y1="-244" x2="113.23125996810205" y2="0" style="fill: none; stroke: #d8d8d8; stroke-width: 1px; opacity: 1;"></line><line x1="139.28123338649655" y1="-244" x2="139.28123338649655" y2="0" style="fill: none; stroke: #d8d8d8; stroke-width: 1px; opacity: 1;"></line><line x1="165.33120680489102" y1="-244" x2="165.33120680489102" y2="0" style="fill: none; stroke: #d8d8d8; stroke-width: 1px; opacity: 1;"></line><line x1="191.38118022328553" y1="-244" x2="191.38118022328553" y2="0" style="fill: none; stroke: #d8d8d8; stroke-width: 1px; opacity: 1;"></line><line x1="217.43115364167988" y1="-244" x2="217.43115364167988" y2="0" style="fill: none; stroke: #d8d8d8; stroke-width: 1px; opacity: 1;"></line><line x1="243.48112706007439" y1="-244" x2="243.48112706007439" y2="0" style="fill: none; stroke: #d8d8d8; stroke-width: 1px; opacity: 1;"></line></g><g id="g52" class="type-rule" style="pointer-events: none;"><line x1="9.031366294524203" y1="0" x2="9.031366294524203" y2="6" style="fill: none; stroke: #000000; stroke-width: 1px; opacity: 1;"></line><line x1="35.08133971291869" y1="0" x2="35.08133971291869" y2="6" style="fill: none; stroke: #000000; stroke-width: 1px; opacity: 1;"></line><line x1="61.131313131313185" y1="0" x2="61.131313131313185" y2="6" style="fill: none; stroke: #000000; stroke-width: 1px; opacity: 1;"></line><line x1="87.18128654970756" y1="0" x2="87.18128654970756" y2="6" style="fill: none; stroke: #000000; stroke-width: 1px; opacity: 1;"></line><line x1="113.23125996810205" y1="0" x2="113.23125996810205" y2="6" style="fill: none; stroke: #000000; stroke-width: 1px; opacity: 1;"></line><line x1="139.28123338649655" y1="0" x2="139.28123338649655" y2="6" style="fill: none; stroke: #000000; stroke-width: 1px; opacity: 1;"></line><line x1="165.33120680489102" y1="0" x2="165.33120680489102" y2="6" style="fill: none; stroke: #000000; stroke-width: 1px; opacity: 1;"></line><line x1="191.38118022328553" y1="0" x2="191.38118022328553" y2="6" style="fill: none; stroke: #000000; stroke-width: 1px; opacity: 1;"></line><line x1="217.43115364167988" y1="0" x2="217.43115364167988" y2="6" style="fill: none; stroke: #000000; stroke-width: 1px; opacity: 1;"></line><line x1="243.48112706007439" y1="0" x2="243.48112706007439" y2="6" style="fill: none; stroke: #000000; stroke-width: 1px; opacity: 1;"></line></g><g id="g53" class="type-rule" style="pointer-events: none;"></g><g id="g54" class="type-text"><text x="9.031366294524203" y="9" text-anchor="middle" dy=".9em" style="font-style: normal; font-variant: normal; font-weight: normal; font-size: 11px; line-height: normal; font-family: sans-serif; fill: #000000; opacity: 1;">5.0</text><text x="35.08133971291869" y="9" text-anchor="middle" dy=".9em" style="font-style: normal; font-variant: normal; font-weight: normal; font-size: 11px; line-height: normal; font-family: sans-serif; fill: #000000; opacity: 1;">5.2</text><text x="61.131313131313185" y="9" text-anchor="middle" dy=".9em" style="font-style: normal; font-variant: normal; font-weight: normal; font-size: 11px; line-height: normal; font-family: sans-serif; fill: #000000; opacity: 1;">5.4</text><text x="87.18128654970756" y="9" text-anchor="middle" dy=".9em" style="font-style: normal; font-variant: normal; font-weight: normal; font-size: 11px; line-height: normal; font-family: sans-serif; fill: #000000; opacity: 1;">5.6</text><text x="113.23125996810205" y="9" text-anchor="middle" dy=".9em" style="font-style: normal; font-variant: normal; font-weight: normal; font-size: 11px; line-height: normal; font-family: sans-serif; fill: #000000; opacity: 1;">5.8</text><text x="139.28123338649655" y="9" text-anchor="middle" dy=".9em" style="font-style: normal; font-variant: normal; font-weight: normal; font-size: 11px; line-height: normal; font-family: sans-serif; fill: #000000; opacity: 1;">6.0</text><text x="165.33120680489102" y="9" text-anchor="middle" dy=".9em" style="font-style: normal; font-variant: normal; font-weight: normal; font-size: 11px; line-height: normal; font-family: sans-serif; fill: #000000; opacity: 1;">6.2</text><text x="191.38118022328553" y="9" text-anchor="middle" dy=".9em" style="font-style: normal; font-variant: normal; font-weight: normal; font-size: 11px; line-height: normal; font-family: sans-serif; fill: #000000; opacity: 1;">6.4</text><text x="217.43115364167988" y="9" text-anchor="middle" dy=".9em" style="font-style: normal; font-variant: normal; font-weight: normal; font-size: 11px; line-height: normal; font-family: sans-serif; fill: #000000; opacity: 1;">6.6</text><text x="243.48112706007439" y="9" text-anchor="middle" dy=".9em" style="font-style: normal; font-variant: normal; font-weight: normal; font-size: 11px; line-height: normal; font-family: sans-serif; fill: #000000; opacity: 1;">6.8</text></g><g id="g55" class="type-path" style="pointer-events: none;"><path transform="translate(0.5,0.5)" d="M0,6V0H245V6" style="fill: none; stroke: #000000; stroke-width: 1px;"></path></g><g id="g56" class="type-text"><text x="122" y="35" text-anchor="middle" dy=".35em" style="font-weight: bold; font-style: normal; font-variant: normal; font-size: 11px; line-height: normal; font-family: sans-serif; fill: #000000;">lokal_x</text></g></g></g><g id="g57" class="type-group"><g transform="translate(0,0)"><rect class="background" width="0" height="0" style="pointer-events: none; fill: none;"></rect><g id="g58" class="type-rule" style="pointer-events: none;"><line x1="0" y1="237.0061425061424" x2="245" y2="237.0061425061424" style="fill: none; stroke: #d8d8d8; stroke-width: 1px; opacity: 1;"></line><line x1="0" y1="213.0257985257984" x2="245" y2="213.0257985257984" style="fill: none; stroke: #d8d8d8; stroke-width: 1px; opacity: 1;"></line><line x1="0" y1="189.04545454545442" x2="245" y2="189.04545454545442" style="fill: none; stroke: #d8d8d8; stroke-width: 1px; opacity: 1;"></line><line x1="0" y1="165.06511056511042" x2="245" y2="165.06511056511042" style="fill: none; stroke: #d8d8d8; stroke-width: 1px; opacity: 1;"></line><line x1="0" y1="141.0847665847665" x2="245" y2="141.0847665847665" style="fill: none; stroke: #d8d8d8; stroke-width: 1px; opacity: 1;"></line><line x1="0" y1="117.10442260442252" x2="245" y2="117.10442260442252" style="fill: none; stroke: #d8d8d8; stroke-width: 1px; opacity: 1;"></line><line x1="0" y1="93.1240786240785" x2="245" y2="93.1240786240785" style="fill: none; stroke: #d8d8d8; stroke-width: 1px; opacity: 1;"></line><line x1="0" y1="69.14373464373452" x2="245" y2="69.14373464373452" style="fill: none; stroke: #d8d8d8; stroke-width: 1px; opacity: 1;"></line><line x1="0" y1="45.1633906633905" x2="245" y2="45.1633906633905" style="fill: none; stroke: #d8d8d8; stroke-width: 1px; opacity: 1;"></line><line x1="0" y1="21.183046683046616" x2="245" y2="21.183046683046616" style="fill: none; stroke: #d8d8d8; stroke-width: 1px; opacity: 1;"></line></g><g id="g59" class="type-rule" style="pointer-events: none;"><line x1="-6" y1="237.0061425061424" x2="0" y2="237.0061425061424" style="fill: none; stroke: #000000; stroke-width: 1px; opacity: 1;"></line><line x1="-6" y1="213.0257985257984" x2="0" y2="213.0257985257984" style="fill: none; stroke: #000000; stroke-width: 1px; opacity: 1;"></line><line x1="-6" y1="189.04545454545442" x2="0" y2="189.04545454545442" style="fill: none; stroke: #000000; stroke-width: 1px; opacity: 1;"></line><line x1="-6" y1="165.06511056511042" x2="0" y2="165.06511056511042" style="fill: none; stroke: #000000; stroke-width: 1px; opacity: 1;"></line><line x1="-6" y1="141.0847665847665" x2="0" y2="141.0847665847665" style="fill: none; stroke: #000000; stroke-width: 1px; opacity: 1;"></line><line x1="-6" y1="117.10442260442252" x2="0" y2="117.10442260442252" style="fill: none; stroke: #000000; stroke-width: 1px; opacity: 1;"></line><line x1="-6" y1="93.1240786240785" x2="0" y2="93.1240786240785" style="fill: none; stroke: #000000; stroke-width: 1px; opacity: 1;"></line><line x1="-6" y1="69.14373464373452" x2="0" y2="69.14373464373452" style="fill: none; stroke: #000000; stroke-width: 1px; opacity: 1;"></line><line x1="-6" y1="45.1633906633905" x2="0" y2="45.1633906633905" style="fill: none; stroke: #000000; stroke-width: 1px; opacity: 1;"></line><line x1="-6" y1="21.183046683046616" x2="0" y2="21.183046683046616" style="fill: none; stroke: #000000; stroke-width: 1px; opacity: 1;"></line></g><g id="g60" class="type-rule" style="pointer-events: none;"></g><g id="g61" class="type-text"><text x="-9" y="237.0061425061424" text-anchor="end" dy=".35em" style="font-style: normal; font-variant: normal; font-weight: normal; font-size: 11px; line-height: normal; font-family: sans-serif; fill: #000000; opacity: 1;">4.6</text><text x="-9" y="213.0257985257984" text-anchor="end" dy=".35em" style="font-style: normal; font-variant: normal; font-weight: normal; font-size: 11px; line-height: normal; font-family: sans-serif; fill: #000000; opacity: 1;">4.8</text><text x="-9" y="189.04545454545442" text-anchor="end" dy=".35em" style="font-style: normal; font-variant: normal; font-weight: normal; font-size: 11px; line-height: normal; font-family: sans-serif; fill: #000000; opacity: 1;">5.0</text><text x="-9" y="165.06511056511042" text-anchor="end" dy=".35em" style="font-style: normal; font-variant: normal; font-weight: normal; font-size: 11px; line-height: normal; font-family: sans-serif; fill: #000000; opacity: 1;">5.2</text><text x="-9" y="141.0847665847665" text-anchor="end" dy=".35em" style="font-style: normal; font-variant: normal; font-weight: normal; font-size: 11px; line-height: normal; font-family: sans-serif; fill: #000000; opacity: 1;">5.4</text><text x="-9" y="117.10442260442252" text-anchor="end" dy=".35em" style="font-style: normal; font-variant: normal; font-weight: normal; font-size: 11px; line-height: normal; font-family: sans-serif; fill: #000000; opacity: 1;">5.6</text><text x="-9" y="93.1240786240785" text-anchor="end" dy=".35em" style="font-style: normal; font-variant: normal; font-weight: normal; font-size: 11px; line-height: normal; font-family: sans-serif; fill: #000000; opacity: 1;">5.8</text><text x="-9" y="69.14373464373452" text-anchor="end" dy=".35em" style="font-style: normal; font-variant: normal; font-weight: normal; font-size: 11px; line-height: normal; font-family: sans-serif; fill: #000000; opacity: 1;">6.0</text><text x="-9" y="45.1633906633905" text-anchor="end" dy=".35em" style="font-style: normal; font-variant: normal; font-weight: normal; font-size: 11px; line-height: normal; font-family: sans-serif; fill: #000000; opacity: 1;">6.2</text><text x="-9" y="21.183046683046616" text-anchor="end" dy=".35em" style="font-style: normal; font-variant: normal; font-weight: normal; font-size: 11px; line-height: normal; font-family: sans-serif; fill: #000000; opacity: 1;">6.4</text></g><g id="g62" class="type-path" style="pointer-events: none;"><path transform="translate(0.5,0.5)" d="M-6,0H0V244H-6" style="fill: none; stroke: #000000; stroke-width: 1px;"></path></g><g id="g63" class="type-text"><text x="-35" y="122" text-anchor="middle" transform="rotate(-90 -35,122)" dy=".35em" style="font-weight: bold; font-style: normal; font-variant: normal; font-size: 11px; line-height: normal; font-family: sans-serif; fill: #000000;">nas_y</text></g></g></g><g id="g64" class="type-symbol"><path transform="translate(132.26874003189795,128.59459459459455)" d="M0,4.496161692449992A4.496161692449992,4.496161692449992 0 1,1 0,-4.496161692449992A4.496161692449992,4.496161692449992 0 1,1 0,4.496161692449992Z" style="fill: #3774a5;"></path><path transform="translate(196.09117490696443,26.678132678132688)" d="M0,5.24522624389899A5.24522624389899,5.24522624389899 0 1,1 0,-5.24522624389899A5.24522624389899,5.24522624389899 0 1,1 0,5.24522624389899Z" style="fill: #4b9ad8;"></path><path transform="translate(168.73870281765025,67.44471744471744)" d="M0,4.938131562395859A4.938131562395859,4.938131562395859 0 1,1 0,-4.938131562395859A4.938131562395859,4.938131562395859 0 1,1 0,4.938131562395859Z" style="fill: #428ac2;"></path><path transform="translate(11.136363636363594,232.90909090909088)" d="M0,2.5231325220201604A2.5231325220201604,2.5231325220201604 0 1,1 0,-2.5231325220201604A2.5231325220201604,2.5231325220201604 0 1,1 0,2.5231325220201604Z" style="fill: #132b43;"></path><path transform="translate(203.90616693248273,44.66339066339061)" d="M0,5.329718546470214A5.329718546470214,5.329718546470214 0 1,1 0,-5.329718546470214A5.329718546470214,5.329718546470214 0 1,1 0,5.329718546470214Z" style="fill: #4d9fdf;"></path><path transform="translate(233.8636363636364,11.090909090909026)" d="M0,5.641895835477563A5.641895835477563,5.641895835477563 0 1,1 0,-5.641895835477563A5.641895835477563,5.641895835477563 0 1,1 0,5.641895835477563Z" style="fill: #56b1f7;"></path><path transform="translate(207.81366294524193,41.066339066338976)" d="M0,5.371466326994846A5.371466326994846,5.371466326994846 0 1,1 0,-5.371466326994846A5.371466326994846,5.371466326994846 0 1,1 0,5.371466326994846Z" style="fill: #4ea1e2;"></path></g><g id="g65" class="type-group"><g transform="translate(263.7076895600744,0.5)"><rect class="background" width="108" height="50" style="pointer-events: none; fill: none;"></rect><g id="g66" class="type-text" style="pointer-events: none;"><text x="3" y="3" text-anchor="start" dy=".9em" style="font-weight: bold; font-style: normal; font-variant: normal; font-size: 11px; line-height: normal; font-family: sans-serif; fill: #000000; opacity: 1;">lokal_x</text></g><g id="g67" class="type-rect" style="pointer-events: none;"><rect x="3" y="18" width="100" height="16" style="fill: http://localhost:21470/session/viewhtml3237bbe35e/index.html?viewer_pane=1#grad_0; stroke: #888888; stroke-width: 1px; opacity: 1;"></rect></g><g id="g68" class="type-text" style="pointer-events: none;"><text x="3" y="36" text-anchor="start" dy=".9em" style="font-style: normal; font-variant: normal; font-weight: normal; font-size: 10px; line-height: normal; font-family: sans-serif; fill: #000000; opacity: 1;">5.0</text><text x="103" y="36" text-anchor="end" dy=".9em" style="font-style: normal; font-variant: normal; font-weight: normal; font-size: 10px; line-height: normal; font-family: sans-serif; fill: #000000; opacity: 1;">6.7</text></g></g></g><g id="g69" class="type-group"><g transform="translate(263.7076895600744,0.5)"><rect class="background" width="50" height="56" style="pointer-events: none; fill: none;"></rect><g id="g70" class="type-text" style="pointer-events: none;"><text x="3" y="3" text-anchor="start" dy=".9em" style="font-weight: bold; font-style: normal; font-variant: normal; font-size: 11px; line-height: normal; font-family: sans-serif; fill: #000000; opacity: 1;">lokal_x</text></g><g id="g71" class="type-symbol" style="pointer-events: none;"><path transform="translate(8.723340080966839,22)" d="M0,3.676167733236715A3.676167733236715,3.676167733236715 0 1,1 0,-3.676167733236715A3.676167733236715,3.676167733236715 0 1,1 0,3.676167733236715Z" style="fill: none; stroke: #888888; stroke-width: 1px; opacity: 1;"></path><path transform="translate(8.723340080966839,35)" d="M0,4.578215208325147A4.578215208325147,4.578215208325147 0 1,1 0,-4.578215208325147A4.578215208325147,4.578215208325147 0 1,1 0,4.578215208325147Z" style="fill: none; stroke: #888888; stroke-width: 1px; opacity: 1;"></path><path transform="translate(8.723340080966839,48)" d="M0,5.329718546470214A5.329718546470214,5.329718546470214 0 1,1 0,-5.329718546470214A5.329718546470214,5.329718546470214 0 1,1 0,5.329718546470214Z" style="fill: none; stroke: #888888; stroke-width: 1px; opacity: 1;"></path></g><g id="g72" class="type-text" style="pointer-events: none;"><text x="18.446680161933678" y="22" text-anchor="start" dy=".35em" style="font-style: normal; font-variant: normal; font-weight: normal; font-size: 10px; line-height: normal; font-family: sans-serif; fill: #000000; opacity: 1;">5.5</text><text x="18.446680161933678" y="35" text-anchor="start" dy=".35em" style="font-style: normal; font-variant: normal; font-weight: normal; font-size: 10px; line-height: normal; font-family: sans-serif; fill: #000000; opacity: 1;">6.0</text><text x="18.446680161933678" y="48" text-anchor="start" dy=".35em" style="font-style: normal; font-variant: normal; font-weight: normal; font-size: 10px; line-height: normal; font-family: sans-serif; fill: #000000; opacity: 1;">6.5</text></g></g></g></g></g></g></svg>